<svg width="500" height="500" viewBox="0 0 500 500" fill="none" xmlns="http://www.w3.org/2000/svg">
<g clip-path="url(#clip0_57_149)">
<rect x="-1" width="500" height="500" rx="40" fill="#8ED2AB"/>
<path d="M63.5781 187.413C63.5781 187.413 69.8515 233.99 53.7609 272.27C43.3211 297.303 25.8417 342.985 5.87211 392.956C-12.8045 440.099 -35.5517 569.93 119.704 614.905C209.447 640.928 335.778 615.942 378.303 582.895C491.991 494.502 468.861 393.239 342.243 263.832C312.887 233.754 302.016 167.613 302.016 167.613L63.5781 187.413Z" fill="#452B4F"/>
<path d="M295.6 322.854C345.404 324.834 358.43 325.164 440.08 353.638L530.734 385.413L644.709 440.098C646.72 455.278 650.934 483.423 638.004 504.873C627.517 522.268 609.511 519.77 576.132 512.227C527.956 501.337 392.239 467.488 392.239 467.488L295.6 322.854Z" fill="#F7C0AB"/>
<path d="M514.551 399.037C514.978 423.145 522.351 446.638 535.814 466.781C552.078 490.277 576.135 507.476 603.864 515.433C621.391 519.629 644.186 515.197 646.389 474.136C649.023 424.541 627.76 382.49 608.365 329.548C581.978 257.514 574.843 239.977 570.772 218.621C568.186 204.997 569.815 178.927 563.972 166.01C557.393 150.957 548.862 136.807 538.591 123.911C527.385 109.203 517.329 118.725 515.653 121.224C505.021 111.371 491.708 111.795 485.77 120.517C480.445 119.765 475.016 120.697 470.264 123.18C465.513 125.662 461.686 129.567 459.335 134.33C451.338 132.303 439.797 137.535 440.18 147.813C441.192 151.939 443.104 155.8 445.783 159.127C445.112 165.633 458.617 191.42 454.211 199.764C449.805 208.108 439.557 208.344 426.579 210.654C412.787 213.153 399.905 220.083 396.888 229.511C394.542 236.866 399.091 239.883 405.796 239.836C411.734 239.836 426.484 236.771 437.785 236.488C454.403 236.064 460.82 235.357 469.152 238.798C478.849 242.365 488.051 247.117 496.545 252.941C502.818 258.08 509.619 264.963 512.492 288.157C515.365 311.351 514.551 372.637 514.551 399.037Z" fill="#F7C0AB"/>
<path opacity="0.5" d="M471.736 181.662C469.577 182.807 467.099 183.234 464.673 182.877C462.247 182.52 460.004 181.399 458.279 179.682C460.77 184.396 462.541 187.366 464.313 190.006C467.091 194.06 472.55 197.596 477.914 192.504C483.277 187.413 482.032 182.652 479.446 174.213C478.777 175.925 477.742 177.476 476.412 178.761C475.082 180.046 473.488 181.035 471.736 181.662V181.662ZM522.929 161.767C521.162 161.65 519.465 161.037 518.039 160.001C516.614 158.965 515.519 157.55 514.884 155.922C514.884 156.534 514.884 159.269 515.123 161.579C515.123 162.474 515.123 163.323 515.123 163.983C515.123 166.67 509.76 170.63 507.078 170.819C504.396 171.007 499.751 170.347 496.351 163.087C496.377 163.259 496.377 163.434 496.351 163.606C496.49 166.101 495.848 168.577 494.512 170.702C493.176 172.826 491.211 174.496 488.88 175.486C487.342 176.26 485.601 176.552 483.889 176.325C482.177 176.097 480.577 175.361 479.303 174.213C480.804 178.523 483.057 182.543 485.959 186.093C490.748 191.703 497.452 186.376 499.033 182.982C499.131 184.359 499.637 185.677 500.488 186.775C501.339 187.872 502.498 188.701 503.822 189.157C508.898 190.949 513.399 186.753 514.597 176.806C514.597 176.806 514.597 176.476 514.597 176.287C517.518 184.914 525.85 184.113 528.389 178.739C530.886 171.214 532.493 163.432 533.177 155.544C533.13 159.127 529.155 162.05 522.929 161.767Z" fill="#F28F8F"/>
<path d="M485.818 120.517C487.573 123.821 489.016 127.277 490.128 130.841C491.278 134.33 492.379 137.866 493.289 141.401L494.821 146.681L496.067 152.056L498.461 162.993V163.747L500.377 175.203L501.239 180.907C501.344 182.554 501.801 184.16 502.579 185.621C502.964 186.137 503.451 186.57 504.011 186.894C504.571 187.218 505.192 187.427 505.836 187.507C506.45 187.61 507.081 187.555 507.668 187.349C508.255 187.142 508.779 186.791 509.188 186.328C511.272 183.586 512.518 180.315 512.78 176.9V176.098C513.171 171.694 513.267 167.269 513.067 162.851V148.756C513.067 144.041 513.067 139.327 513.306 134.896C513.306 132.538 513.642 130.181 513.881 127.918C513.998 125.585 514.618 123.303 515.701 121.224C514.975 123.395 514.698 125.688 514.887 127.966C514.887 130.276 514.887 132.68 514.887 134.848L515.845 148.661L516.85 162.474L517.185 169.451C517.313 171.921 517.233 174.396 516.946 176.853V177.136C516.67 181.538 514.995 185.744 512.157 189.157C511.253 190.159 510.11 190.925 508.831 191.385C507.553 191.846 506.178 191.987 504.83 191.797C503.563 191.595 502.346 191.163 501.239 190.524C500.055 189.838 499.053 188.885 498.317 187.743C497.245 185.795 496.624 183.638 496.498 181.426L495.683 175.58L494.534 163.841V163.464L492.858 152.763L492.044 147.341L490.895 141.92C489.663 134.687 487.968 127.539 485.818 120.517V120.517Z" fill="#F28F8F"/>
<path d="M459.477 134.283C467.247 144.149 473.761 154.915 478.871 166.341L482.319 175.015C483.327 177.795 484.594 180.478 486.103 183.029C487.731 185.622 489.311 187.743 492.041 187.461C493.51 187.291 494.926 186.812 496.19 186.055C497.454 185.298 498.538 184.282 499.368 183.076C498.824 184.647 497.905 186.066 496.688 187.214C495.472 188.363 493.993 189.207 492.376 189.676C490.486 190.08 488.51 189.742 486.869 188.733C485.419 187.746 484.155 186.518 483.134 185.103C481.213 182.481 479.606 179.65 478.345 176.665L474.753 168.179C472.359 162.522 469.629 157.006 467.091 151.396C464.553 145.786 461.871 140.271 459.477 134.283Z" fill="#F28F8F"/>
<path d="M479.11 173.27L479.541 174.26C480.918 177.537 481.774 181.003 482.079 184.537C482.109 186.412 481.691 188.267 480.86 189.954C480.028 191.641 478.805 193.112 477.29 194.249C475.735 195.519 473.755 196.174 471.735 196.087C469.741 195.923 467.848 195.148 466.324 193.871C463.694 191.332 461.553 188.345 460.003 185.056L449.467 166.859C447.743 163.794 445.971 160.777 444.295 157.43C442.468 154.408 441.157 151.111 440.416 147.671C441.537 151.027 443.15 154.204 445.205 157.1L450.952 165.916C454.831 171.761 458.374 177.937 461.918 183.877C463.395 186.911 465.35 189.696 467.713 192.127C468.837 193.201 470.314 193.844 471.877 193.939C473.441 194.034 474.987 193.575 476.237 192.646C477.648 191.749 478.819 190.531 479.653 189.095C480.486 187.66 480.957 186.048 481.026 184.396C480.979 180.937 480.48 177.499 479.541 174.166V174.166L479.11 173.27Z" fill="#F28F8F"/>
<path d="M556.545 230.972C549.649 235.687 540.742 235.687 534.516 239.6C528.291 243.512 514.547 252.47 500.18 246.2C489.165 241.485 472.404 236.488 463.497 236.771C465.434 237.247 467.337 237.845 469.196 238.562C478.892 242.129 488.095 246.881 496.588 252.705C502.862 257.844 509.662 264.727 512.535 287.921C512.535 289.241 512.87 290.797 513.014 292.635C513.014 292.635 513.637 274.108 518.521 264.821C523.406 255.534 537.342 249.924 550.655 242.193C563.968 234.461 563.441 226.4 556.545 230.972Z" fill="#F28F8F"/>
<path d="M202.313 327.521C167.181 332.055 132.444 339.178 98.3948 348.83C83.693 356.326 53.1399 371.883 62.2866 464.566C65.3994 496.104 92.0735 544.284 91.0199 599.536C90.3495 637.58 67.0755 660.822 44.041 735.496C118.843 813.847 389.846 815.026 426.05 748.649C417.047 648.942 396.981 641.87 406.416 547.914C406.416 547.914 426.002 506.146 422.698 479.699C417.909 440.947 408.858 427.559 370.403 385.931C348.22 361.937 323.093 340.748 295.601 322.854C264.431 322.173 233.252 323.733 202.313 327.521V327.521Z" fill="#EF8B70"/>
<path d="M164.343 305.742C152.323 295.653 133.934 289.43 105.631 266.802C66.2188 235.357 24.795 131.03 81.6869 107.27C76.2275 23.5442 196.093 -8.41867 249.681 1.85848C405.75 31.8414 341.292 132.114 341.292 132.114L164.343 305.742Z" fill="#452B4F"/>
<path d="M306.332 78.2769C325.919 93.7398 336.55 98.2655 344.068 181.991C349.911 247.284 336.406 272.27 308.008 287.544C297.952 292.966 278.03 297.444 258.587 297.397L261.748 327.946C261.748 327.946 297.568 368.866 297.185 421.336C178.517 372.024 159.17 337.469 159.17 337.469L143.798 234.556C140.493 241.674 121.338 253.083 102.901 234.933C81.2069 213.624 81.9252 184.961 97.2975 172.61C112.67 160.258 134.316 167.613 144.324 185.951C163.193 191.137 175.5 173.317 165.874 105.054C204.042 79.2669 257.533 59.7026 306.332 78.2769Z" fill="#F7C0AB"/>
<path d="M303.168 43.2497C314.709 72.3368 310.16 122.685 268.353 142.815C275.536 122.968 270.843 87.4226 270.843 87.4226C270.843 87.4226 247.138 161.39 158.544 158.137L145.039 79.974C184.499 45.324 248.622 15.4354 303.168 43.2497Z" fill="#452B4F"/>
<path d="M258.587 297.256C200.498 295.182 167.598 273.685 159.17 252.188C159.17 252.188 163.432 279.248 183.45 291.646C207.729 306.638 260.072 312.389 260.072 312.389L258.587 297.256Z" fill="#F28F8F"/>
<path d="M280.905 236.489L240.391 227.06C239.63 229.615 239.409 232.295 239.74 234.937C240.071 237.579 240.947 240.127 242.315 242.423C243.683 244.719 245.514 246.715 247.695 248.289C249.876 249.863 252.361 250.981 254.997 251.574C260.455 252.788 266.178 251.902 270.995 249.097C275.811 246.293 279.356 241.782 280.905 236.489V236.489Z" fill="#B16668"/>
<path d="M264.002 251.669C261.036 252.304 257.965 252.304 254.999 251.669C251.347 250.837 248.011 248.999 245.382 246.369C242.753 243.739 240.939 240.426 240.153 236.819C245.214 236.489 250.25 237.749 254.536 240.418C258.822 243.086 262.136 247.026 264.002 251.669V251.669Z" fill="#F28F8F"/>
<path d="M214.049 167.235C214.304 169.436 215.217 171.513 216.674 173.202C218.13 174.89 220.063 176.114 222.228 176.719C224.393 177.323 226.691 177.281 228.831 176.597C230.972 175.912 232.857 174.617 234.248 172.876C235.638 171.135 236.472 169.026 236.643 166.817C236.813 164.608 236.313 162.399 235.205 160.471C234.098 158.543 232.433 156.982 230.423 155.987C228.412 154.993 226.147 154.609 223.914 154.884C220.944 155.238 218.237 156.737 216.388 159.052C214.539 161.368 213.698 164.311 214.049 167.235V167.235Z" fill="#452B4F"/>
<path d="M295.844 158.09C296.09 160.294 296.997 162.376 298.448 164.072C299.9 165.767 301.831 166.999 303.996 167.611C306.161 168.222 308.462 168.186 310.606 167.506C312.75 166.826 314.64 165.534 316.035 163.793C317.431 162.053 318.269 159.943 318.442 157.732C318.616 155.521 318.117 153.31 317.01 151.379C315.903 149.448 314.237 147.885 312.225 146.889C310.212 145.893 307.944 145.509 305.71 145.786C304.241 145.955 302.82 146.408 301.53 147.118C300.239 147.829 299.103 148.782 298.187 149.925C297.271 151.068 296.592 152.377 296.19 153.778C295.788 155.179 295.671 156.644 295.844 158.09V158.09Z" fill="#452B4F"/>
<path d="M260.313 147.719L275.446 221.073L309.543 202.829L260.313 147.719Z" fill="#F28F8F"/>
<path d="M325.248 134.613L298.382 128.956C298.684 127.222 299.339 125.567 300.309 124.09C301.279 122.613 302.543 121.345 304.024 120.363C305.506 119.38 307.174 118.703 308.929 118.373C310.683 118.043 312.488 118.067 314.233 118.443C317.823 119.237 320.967 121.356 323.016 124.365C325.066 127.374 325.864 131.042 325.248 134.613V134.613Z" fill="#452B4F"/>
<path d="M201.696 145.22L225.641 131.455C224.799 129.888 223.646 128.504 222.251 127.384C220.856 126.264 219.246 125.431 217.518 124.934C215.79 124.437 213.978 124.287 212.19 124.492C210.402 124.697 208.674 125.253 207.108 126.127C203.844 127.977 201.448 131.014 200.436 134.584C199.424 138.155 199.876 141.975 201.696 145.22V145.22Z" fill="#452B4F"/>
<path d="M220.808 197.973C221.335 207.401 211.23 215.746 197.917 216.453C184.604 217.16 173.637 210.088 173.111 200.566C172.584 191.043 182.688 182.793 196.001 182.038C209.314 181.284 220.281 188.45 220.808 197.973Z" fill="#F28F8F"/>
<path d="M363.176 172.61C366.576 181.52 359.392 192.457 347.085 197.077C334.778 201.697 321.943 198.256 318.352 189.346C314.76 180.436 322.087 169.499 334.442 164.879C346.798 160.259 359.728 163.841 363.176 172.61Z" fill="#F28F8F"/>
<path d="M109.983 346.426C48.7815 355.854 30.5838 366.037 -8.01458 415.914C-52.3596 473.193 -112.316 541.126 -130.083 567.573C-152.016 600.29 -157.619 613.302 -125.007 656.39C-108.006 678.547 -84.062 705.607 -60.1176 735.685C-40.9621 759.256 -17.8318 785.043 0.318025 809.416C2.83155 812.126 4.51587 815.48 5.17676 819.092C5.83765 822.704 5.44819 826.426 4.05335 829.829C1.78245 834.28 -0.216472 838.861 -1.93275 843.547C-2.871 849.884 -3.30327 856.284 -3.2257 862.688C-3.89614 869.052 -7.00894 876.029 -13.2824 877.82C-16.3452 878.597 -19.5579 878.597 -22.6207 877.82C-17.872 882.628 -12.3957 886.684 -6.38638 889.842C-0.30483 893.033 6.77771 893.841 13.4396 892.105C19.713 890.172 24.9808 885.316 31.5415 884.373C35.0374 883.902 38.677 884.609 42.2207 884.373C45.8091 883.931 49.1624 882.379 51.7985 879.942C56.0606 876.029 58.503 869.9 63.9623 867.92C66.6649 867.32 69.3985 866.863 72.1512 866.553C74.8773 865.737 77.3609 864.281 79.3882 862.31C81.4154 860.339 82.9255 857.912 83.7882 855.239C85.4571 849.901 86.1542 844.315 85.8474 838.739C85.8401 823.713 84.9928 808.699 83.3093 793.765C82.4866 788.679 80.7516 783.779 78.1853 779.292C75.5514 774.012 73.0611 768.59 70.092 763.452C49.9309 728.66 -13.0908 613.16 -13.0908 613.16L97.4365 503.129C97.4365 503.129 155.382 406.156 109.983 346.426Z" fill="#F7C0AB"/>
</g>
<defs>
<clipPath id="clip0_57_149">
<rect width="500" height="500" rx="40" fill="white"/>
</clipPath>
</defs>
</svg>
