<svg width="500" height="600" viewBox="0 0 500 600" fill="none" xmlns="http://www.w3.org/2000/svg">
<g clip-path="url(#clip0_57_149)">
<rect y="138" width="500" height="462" rx="40" fill="#8ED2AB"/>
<path d="M63.4686 405.558C45.9325 436.761 9.30019 489.026 4.68215 580.826C-2.58815 725.42 -6.86296 800.464 -6.86296 800.464C-15.3502 827.86 -21.6532 830.2 -26.6457 902.716C-30.6397 960.597 -31.2949 1032.58 -31.2949 1032.58C-31.2949 1032.58 11.0164 1055.08 45.7765 1042.91C61.6588 996.606 87.3701 894.166 105.249 831.979C121.506 775.532 139.573 684.576 139.573 684.576L165.471 823.772C160.466 853.957 159.584 884.681 162.85 915.103C167.125 953.826 182.102 1030.71 182.102 1030.71C182.102 1030.71 229.25 1047.97 259.611 1027.59C259.611 1027.59 274.9 860.81 276.242 814.006C278.27 743.768 280.08 626.226 274.588 529.746C272.498 492.864 259.642 430.365 255.055 405.465L63.4686 405.558Z" fill="#452B4F"/>
<path d="M139.419 684.575L158.983 571.028C158.983 571.028 220.266 566.784 243.45 546.564C243.45 546.564 213.589 584.632 171.933 589.032L151.588 684.575L165.193 822.555L139.419 684.575Z" fill="#263238"/>
<path d="M34.8584 124.045C34.8584 124.045 38.946 154.874 28.4618 180.211C21.6595 196.779 10.2704 227.015 -2.74121 260.09C-14.9104 291.293 -29.7318 377.226 71.4284 406.994C129.903 424.218 212.216 407.681 239.925 385.807C314.001 327.302 298.929 260.278 216.429 174.625C197.301 154.718 190.218 110.94 190.218 110.94L34.8584 124.045Z" fill="#452B4F"/>
<path d="M186.037 213.691C218.488 215.002 226.976 215.22 280.177 234.067L339.244 255.098L413.507 291.293C414.818 301.341 417.563 319.969 409.139 334.166C402.305 345.68 390.573 344.026 368.824 339.034C337.434 331.826 249.005 309.422 249.005 309.422L186.037 213.691Z" fill="#F7C0AB"/>
<path d="M322.458 249.013C325.11 288.454 330.165 295.818 345.33 312.73L342.209 256.346L339.339 254.942L322.458 249.013Z" fill="#F28F8F"/>
<path d="M328.7 264.115C328.978 280.072 333.782 295.622 342.554 308.954C353.151 324.506 368.826 335.889 386.893 341.156C398.314 343.933 413.166 341 414.602 313.822C416.318 280.996 402.464 253.163 389.826 218.122C372.634 170.444 367.984 158.836 365.332 144.701C363.647 135.684 364.708 118.428 360.901 109.879C356.614 99.9159 351.056 90.55 344.364 82.0145C337.062 72.2792 330.51 78.5822 329.417 80.2359C322.49 73.7145 313.816 73.9954 309.947 79.7679C306.477 79.27 302.94 79.8872 299.844 81.5304C296.748 83.1737 294.254 85.7579 292.723 88.9104C287.512 87.5687 279.992 91.0322 280.241 97.8344C280.901 100.566 282.147 103.121 283.892 105.323C283.455 109.629 292.255 126.697 289.384 132.22C286.513 137.743 279.836 137.899 271.38 139.428C262.393 141.082 254 145.669 252.034 151.909C250.505 156.777 253.469 158.774 257.838 158.743C261.707 158.743 271.317 156.715 278.681 156.527C289.509 156.246 293.69 155.778 299.119 158.056C305.437 160.417 311.433 163.562 316.967 167.417C321.055 170.818 325.486 175.374 327.358 190.726C329.23 206.078 328.7 246.642 328.7 264.115Z" fill="#F7C0AB"/>
<path opacity="0.5" d="M300.802 120.238C299.395 120.997 297.781 121.279 296.2 121.043C294.619 120.807 293.158 120.065 292.034 118.928C293.657 122.048 294.811 124.014 295.966 125.761C297.776 128.445 301.333 130.785 304.827 127.415C308.322 124.045 307.511 120.894 305.826 115.308C305.39 116.442 304.716 117.468 303.849 118.319C302.983 119.169 301.944 119.824 300.802 120.238V120.238ZM334.158 107.071C333.006 106.993 331.901 106.587 330.972 105.902C330.043 105.216 329.33 104.279 328.916 103.202C328.916 103.607 328.916 105.417 329.072 106.946C329.072 107.539 329.072 108.101 329.072 108.537C329.072 110.316 325.577 112.937 323.83 113.062C322.083 113.187 319.056 112.75 316.841 107.945C316.858 108.058 316.858 108.174 316.841 108.288C316.931 109.939 316.513 111.578 315.643 112.984C314.772 114.391 313.491 115.496 311.973 116.151C310.971 116.663 309.836 116.857 308.721 116.706C307.605 116.556 306.563 116.068 305.732 115.308C306.711 118.161 308.179 120.822 310.07 123.172C313.19 126.885 317.558 123.359 318.588 121.112C318.652 122.024 318.982 122.897 319.536 123.623C320.091 124.349 320.846 124.897 321.708 125.2C325.016 126.386 327.949 123.608 328.729 117.025C328.729 117.025 328.729 116.806 328.729 116.681C330.632 122.392 336.062 121.861 337.715 118.304C339.343 113.324 340.39 108.172 340.836 102.952C340.805 105.323 338.215 107.258 334.158 107.071Z" fill="#F28F8F"/>
<path d="M330.319 115.839V116.119C330.849 117.992 332.098 119.583 333.783 119.645C334.204 119.669 334.627 119.606 335.024 119.461C335.42 119.316 335.784 119.092 336.092 118.803C336.766 118.093 337.25 117.223 337.496 116.275C338.813 111.879 339.762 107.381 340.335 102.827V103.17V102.983C340.647 100.424 340.803 97.7097 341.365 95.1199C341.646 93.8093 342.051 92.53 342.426 91.2819C342.794 90.0164 342.9 88.6893 342.738 87.3815C343.021 88.6873 343.021 90.0385 342.738 91.3443C342.457 92.6548 342.145 93.9029 341.989 95.2135C341.583 97.8033 341.646 100.424 341.49 103.108V102.765V102.983C341.233 107.67 340.576 112.325 339.524 116.9C339.267 118.225 338.652 119.456 337.745 120.457C337.244 121 336.636 121.436 335.96 121.736C335.284 122.037 334.554 122.196 333.814 122.204C332.291 122.224 330.821 121.641 329.726 120.582C328.724 119.619 327.964 118.432 327.511 117.118V117.399L330.319 115.839Z" fill="#F28F8F"/>
<path d="M347.42 93.9653C346.952 95.4151 346.175 96.7459 345.142 97.8657C344.124 99.0254 342.984 100.072 341.741 100.986L340.961 99.6755C343.653 98.4859 345.909 96.4909 347.42 93.9653V93.9653Z" fill="#F28F8F"/>
<path d="M309.979 79.768C311.122 81.955 312.062 84.2425 312.787 86.6015C313.536 88.9105 314.253 91.2507 314.846 93.591L315.845 97.0857L316.656 100.643L318.216 107.882V108.381L319.464 115.964L320.026 119.739C320.095 120.829 320.392 121.892 320.9 122.859C321.15 123.2 321.467 123.487 321.832 123.702C322.197 123.916 322.602 124.054 323.021 124.108C323.422 124.175 323.833 124.139 324.215 124.003C324.598 123.866 324.939 123.634 325.206 123.327C326.563 121.512 327.375 119.347 327.546 117.087V116.556C327.801 113.641 327.863 110.712 327.733 107.788V98.4586C327.733 95.3383 327.733 92.218 327.889 89.285C327.889 87.7248 328.107 86.1646 328.263 84.6669C328.34 83.1225 328.744 81.6121 329.449 80.2361C328.976 81.6731 328.796 83.1903 328.919 84.6981C328.919 86.2271 328.919 87.8184 328.919 89.2537L329.543 98.3962L330.198 107.539L330.416 112.157C330.5 113.791 330.448 115.43 330.26 117.056V117.243C330.081 120.157 328.989 122.94 327.14 125.2C326.551 125.863 325.806 126.369 324.973 126.674C324.14 126.979 323.244 127.073 322.366 126.947C321.541 126.813 320.747 126.527 320.026 126.105C319.254 125.65 318.602 125.019 318.122 124.264C317.424 122.974 317.019 121.546 316.937 120.082L316.406 116.213L315.657 108.444V108.194L314.565 101.111L314.035 97.5225L313.286 93.9342C312.484 89.147 311.379 84.4155 309.979 79.768V79.768Z" fill="#F28F8F"/>
<path d="M292.815 88.8797C297.879 95.4097 302.123 102.535 305.453 110.098L307.699 115.839C308.356 117.679 309.181 119.455 310.164 121.144C311.225 122.86 312.255 124.264 314.033 124.077C314.991 123.964 315.913 123.647 316.737 123.146C317.561 122.646 318.267 121.973 318.807 121.175C318.453 122.214 317.854 123.154 317.062 123.914C316.269 124.674 315.305 125.233 314.252 125.543C313.02 125.811 311.733 125.587 310.664 124.919C309.719 124.266 308.895 123.453 308.23 122.517C306.978 120.781 305.931 118.907 305.109 116.931L302.769 111.315C301.209 107.57 299.43 103.92 297.777 100.206C296.123 96.4932 294.376 92.8425 292.815 88.8797Z" fill="#F28F8F"/>
<path d="M305.608 114.684L305.888 115.339C306.785 117.509 307.343 119.803 307.542 122.142C307.562 123.383 307.289 124.611 306.747 125.727C306.205 126.844 305.409 127.817 304.422 128.57C303.408 129.41 302.118 129.844 300.802 129.786C299.503 129.678 298.27 129.165 297.276 128.32C295.563 126.639 294.167 124.662 293.158 122.485L286.293 110.441C285.17 108.412 284.015 106.415 282.923 104.2C281.732 102.2 280.879 100.018 280.396 97.741C281.126 99.9621 282.177 102.065 283.516 103.982L287.26 109.817C289.788 113.686 292.097 117.773 294.406 121.705C295.368 123.713 296.642 125.556 298.181 127.165C298.914 127.876 299.876 128.302 300.895 128.364C301.914 128.427 302.921 128.124 303.735 127.509C304.655 126.915 305.418 126.109 305.961 125.159C306.504 124.208 306.811 123.142 306.856 122.048C306.825 119.759 306.5 117.483 305.888 115.277V115.277L305.608 114.684Z" fill="#F28F8F"/>
<path d="M321.676 123.452C326.021 126.277 329.773 129.923 332.721 134.186C335.755 138.266 337.757 143.019 338.556 148.04C337.302 143.227 334.892 138.793 331.536 135.122C328.383 131.408 324.535 128.345 320.209 126.104L321.676 123.452Z" fill="#F28F8F"/>
<path d="M356.062 152.876C351.569 155.997 345.765 155.997 341.709 158.587C337.652 161.176 328.697 167.105 319.336 162.955C312.159 159.835 301.238 156.527 295.435 156.714C296.697 157.029 297.937 157.425 299.148 157.9C305.465 160.261 311.462 163.406 316.996 167.261C321.083 170.662 325.514 175.218 327.386 190.57C327.386 191.443 327.605 192.473 327.698 193.69C327.698 193.69 328.104 181.427 331.287 175.28C334.47 169.133 343.55 165.42 352.224 160.303C360.899 155.186 360.555 149.85 356.062 152.876Z" fill="#F28F8F"/>
<path d="M125.255 216.78C102.364 219.781 79.7299 224.496 57.5443 230.884C47.965 235.845 28.0575 246.142 34.0172 307.488C36.0454 328.362 53.4255 360.252 52.7391 396.822C52.3022 422.003 37.1376 437.386 22.1289 486.811C70.868 538.671 247.446 539.451 271.035 495.517C265.169 429.523 252.095 424.842 258.242 362.655C258.242 362.655 271.004 335.009 268.851 317.504C265.731 291.855 259.833 282.993 234.777 255.441C220.323 239.559 203.951 225.535 186.038 213.691C165.729 213.241 145.414 214.273 125.255 216.78V216.78Z" fill="#EF8B70"/>
<path d="M100.513 202.365C92.6815 195.687 80.6996 191.568 62.2586 176.591C36.5785 155.779 9.5879 86.7264 46.6571 71C43.0999 15.5835 121.201 -5.57216 156.117 1.23009C257.808 21.0752 215.809 87.444 215.809 87.444L100.513 202.365Z" fill="#452B4F"/>
<path d="M193.03 51.8101C205.792 62.0447 212.719 65.0401 217.618 120.457C221.424 163.673 212.625 180.21 194.122 190.32C187.569 193.909 174.589 196.873 161.92 196.842L163.98 217.061C163.98 217.061 187.319 244.145 187.07 278.874C109.749 246.236 97.1427 223.364 97.1427 223.364L87.1266 155.248C84.9736 159.96 72.4923 167.511 60.4792 155.498C46.3442 141.394 46.8123 122.422 56.8284 114.247C66.8446 106.072 80.9484 110.94 87.4698 123.078C99.7638 126.51 107.783 114.715 101.511 69.5334C126.38 52.4653 161.234 39.5161 193.03 51.8101Z" fill="#F7C0AB"/>
<path d="M190.968 28.6262C198.488 47.8784 195.524 81.2033 168.283 94.527C172.964 81.3905 169.906 57.8634 169.906 57.8634C169.906 57.8634 154.46 106.821 96.7348 104.668L87.9355 52.9333C113.647 29.9991 155.428 10.2164 190.968 28.6262Z" fill="#452B4F"/>
<path d="M161.92 196.748C124.071 195.375 102.634 181.147 97.1426 166.918C97.1426 166.918 99.9197 184.829 112.963 193.035C128.782 202.958 162.887 206.765 162.887 206.765L161.92 196.748Z" fill="#F28F8F"/>
<path d="M176.462 156.527L150.064 150.287C149.569 151.978 149.424 153.752 149.64 155.501C149.856 157.249 150.427 158.935 151.318 160.455C152.21 161.975 153.403 163.296 154.824 164.338C156.245 165.38 157.864 166.12 159.581 166.512C163.138 167.316 166.867 166.729 170.005 164.873C173.143 163.017 175.453 160.031 176.462 156.527V156.527Z" fill="#B16668"/>
<path d="M165.448 166.575C163.515 166.995 161.515 166.995 159.582 166.575C157.203 166.025 155.029 164.808 153.316 163.067C151.603 161.326 150.421 159.134 149.909 156.746C153.206 156.527 156.488 157.362 159.28 159.128C162.073 160.894 164.233 163.502 165.448 166.575V166.575Z" fill="#F28F8F"/>
<path d="M132.901 110.69C133.067 112.147 133.662 113.521 134.611 114.639C135.56 115.757 136.819 116.567 138.23 116.967C139.64 117.367 141.138 117.339 142.532 116.886C143.927 116.433 145.155 115.576 146.061 114.423C146.968 113.271 147.511 111.875 147.622 110.413C147.733 108.951 147.407 107.489 146.685 106.213C145.964 104.937 144.879 103.904 143.569 103.245C142.259 102.587 140.783 102.333 139.328 102.515C137.393 102.749 135.63 103.741 134.425 105.274C133.22 106.806 132.672 108.754 132.901 110.69V110.69Z" fill="#452B4F"/>
<path d="M186.196 104.637C186.356 106.096 186.947 107.474 187.893 108.596C188.839 109.718 190.097 110.534 191.508 110.938C192.918 111.343 194.418 111.319 195.814 110.869C197.211 110.419 198.443 109.564 199.352 108.412C200.261 107.26 200.807 105.863 200.92 104.4C201.033 102.937 200.709 101.473 199.987 100.195C199.266 98.9167 198.18 97.8823 196.869 97.223C195.558 96.5638 194.08 96.3096 192.624 96.4928C191.667 96.605 190.742 96.9047 189.901 97.3749C189.059 97.845 188.319 98.4762 187.722 99.2326C187.125 99.9889 186.683 100.856 186.422 101.783C186.16 102.71 186.083 103.68 186.196 104.637V104.637Z" fill="#452B4F"/>
<path d="M163.045 97.7722L172.905 146.324L195.122 134.249L163.045 97.7722Z" fill="#F28F8F"/>
<path d="M205.355 89.0977L187.85 85.3533C188.046 84.2061 188.473 83.1106 189.105 82.1331C189.737 81.1556 190.561 80.3163 191.526 79.6659C192.491 79.0156 193.578 78.5676 194.722 78.3492C195.865 78.1308 197.041 78.1464 198.178 78.395C200.517 78.9205 202.566 80.3236 203.901 82.3149C205.236 84.3063 205.756 86.734 205.355 89.0977V89.0977Z" fill="#452B4F"/>
<path d="M124.852 96.1187L140.454 87.0074C139.905 85.9705 139.154 85.0544 138.245 84.3131C137.336 83.5717 136.287 83.0204 135.161 82.6916C134.035 82.3628 132.855 82.2633 131.69 82.399C130.525 82.5347 129.399 82.9027 128.378 83.4814C126.251 84.7054 124.69 86.7155 124.031 89.079C123.371 91.4425 123.666 93.9704 124.852 96.1187V96.1187Z" fill="#452B4F"/>
<path d="M137.304 131.035C137.647 137.275 131.063 142.798 122.389 143.266C113.714 143.734 106.569 139.054 106.226 132.751C105.882 126.448 112.466 120.987 121.141 120.488C129.815 119.989 136.961 124.732 137.304 131.035Z" fill="#F28F8F"/>
<path d="M230.067 114.247C232.283 120.145 227.602 127.384 219.583 130.442C211.564 133.5 203.202 131.222 200.861 125.325C198.521 119.427 203.295 112.188 211.346 109.13C219.396 106.072 227.821 108.444 230.067 114.247Z" fill="#F28F8F"/>
<path d="M65.0949 229.293C25.2174 235.534 13.3603 242.273 -11.7894 275.286C-40.6834 313.198 -79.7495 358.161 -91.3259 375.666C-105.617 397.321 -109.268 405.933 -88.0183 434.453C-76.9413 449.118 -61.3398 467.029 -45.7383 486.936C-33.2571 502.538 -18.186 519.606 -6.36007 535.738C-4.72233 537.532 -3.62487 539.752 -3.19425 542.142C-2.76363 544.533 -3.01739 546.996 -3.92624 549.249C-5.40589 552.195 -6.70833 555.227 -7.82662 558.329C-8.43795 562.523 -8.71961 566.759 -8.66906 570.997C-9.10591 575.21 -11.1341 579.828 -15.2217 581.013C-17.2174 581.527 -19.3106 581.527 -21.3063 581.013C-18.2122 584.196 -14.644 586.88 -10.7285 588.97C-6.76591 591.082 -2.15112 591.617 2.18958 590.468C6.27717 589.188 9.7095 585.975 13.9843 585.351C16.2621 585.038 18.6335 585.507 20.9426 585.351C23.2806 585.057 25.4656 584.031 27.1832 582.417C29.9602 579.828 31.5516 575.771 35.1088 574.461C36.8697 574.063 38.6509 573.761 40.4445 573.556C42.2207 573.016 43.839 572.052 45.1599 570.747C46.4807 569.443 47.4647 567.836 48.0268 566.067C49.1142 562.534 49.5684 558.837 49.3685 555.146C49.3638 545.201 48.8117 535.263 47.7148 525.378C47.1787 522.013 46.0482 518.769 44.3761 515.799C42.6599 512.304 41.0373 508.716 39.1027 505.315C25.9663 482.287 -15.0969 405.84 -15.0969 405.84L56.9196 333.012C56.9196 333.012 94.6753 268.827 65.0949 229.293Z" fill="#F7C0AB"/>
</g>
<defs>
<clipPath id="clip0_57_149">
<rect width="500" height="600" rx="40" fill="white"/>
</clipPath>
</defs>
</svg>
