<svg width="518" height="1305" viewBox="0 0 518 1305" fill="none" xmlns="http://www.w3.org/2000/svg">
<path d="M358.213 1096.24C356.964 1065.47 374.469 887.645 374.469 887.645L270.376 931.329C279.987 1008.81 295.619 1068.93 296.181 1113.15C296.181 1113.15 322.423 1139.48 337.057 1156.3C349.381 1170.97 362.953 1184.54 377.621 1196.87C388.916 1205.88 414.44 1211.84 419.339 1204.39C401.585 1183.79 380.804 1160.98 367.854 1138.86C361.676 1128.78 359.055 1117.46 358.213 1096.24Z" fill="#FFA8A7"/>
<path d="M453.287 1228.44C454.41 1228.6 453.505 1241.71 446.453 1246.2C438.309 1251.41 415.968 1258.52 389.914 1250.63C363.859 1242.73 351.097 1231.69 342.235 1220.52C333.374 1209.35 321.017 1193.59 309.472 1188.85C298.738 1184.45 287.63 1177.15 284.697 1172.9C281.764 1168.66 285.571 1152.4 285.571 1152.4L453.287 1228.44Z" fill="#263238"/>
<path d="M295.619 1100.7C294.656 1101.07 293.826 1101.72 293.236 1102.56C292.647 1103.41 292.324 1104.41 292.311 1105.44C291.812 1111.53 293.872 1117.52 290.907 1127.72C287.786 1137.59 285.817 1147.79 285.041 1158.11C284.885 1166.69 302.078 1175.43 312.874 1181.98C323.67 1188.54 335.777 1200.7 345.825 1213.34C355.872 1225.98 380.554 1241.42 397.934 1244.54C424.519 1249.16 443.303 1244.26 450.636 1235C459.716 1223.51 455.971 1215.43 428.325 1195.62C423.083 1191.84 405.235 1175.9 399.213 1170.19C382.894 1154.74 367.729 1134.43 363.486 1110.9C363.333 1108.13 362.231 1105.5 360.365 1103.44C358.63 1102.31 356.566 1101.78 354.499 1101.95C349.208 1101.91 343.945 1102.7 338.898 1104.29C334.373 1105.72 325.574 1106.94 324.544 1112.49C324.394 1115.08 324.583 1117.67 325.106 1120.2C325.106 1121.42 325.543 1125.6 324.451 1126.13C323.358 1126.66 321.517 1123.57 320.956 1122.6C318.272 1118.08 317.586 1115.46 313.467 1113.84C309.348 1112.21 298.24 1110.31 296.025 1105.32L295.619 1100.7Z" fill="#37474F"/>
<path d="M432.663 1198.83C393.534 1195.52 376.498 1218.77 371.661 1234.09C379.756 1238.98 388.601 1242.5 397.84 1244.51C424.425 1249.13 444.302 1244.51 451.634 1235.15C460.184 1224.32 457.844 1214.12 432.663 1198.83Z" fill="#FAFAFA"/>
<path d="M374.748 1190.1C374.311 1190.03 373.912 1189.81 373.625 1189.47C373.305 1189.04 373.16 1188.51 373.218 1187.98C373.275 1187.44 373.532 1186.95 373.937 1186.6C380.677 1180.52 397.995 1173.78 411.693 1177.61C411.937 1177.69 412.164 1177.81 412.359 1177.98C412.555 1178.14 412.716 1178.34 412.833 1178.57C412.949 1178.79 413.019 1179.04 413.037 1179.3C413.056 1179.55 413.023 1179.81 412.941 1180.05C412.875 1180.3 412.761 1180.54 412.603 1180.75C412.445 1180.96 412.248 1181.14 412.021 1181.27C411.795 1181.4 411.545 1181.49 411.286 1181.53C411.026 1181.56 410.761 1181.55 410.507 1181.48C397.714 1177.96 381.707 1184.76 376.34 1189.6C376.131 1189.8 375.879 1189.95 375.603 1190.03C375.327 1190.12 375.034 1190.14 374.748 1190.1V1190.1Z" fill="#F0F0F0"/>
<path d="M360.145 1177.24C359.718 1177.17 359.329 1176.95 359.053 1176.62C358.724 1176.2 358.57 1175.67 358.622 1175.14C358.675 1174.61 358.93 1174.12 359.334 1173.78C366.074 1167.54 383.423 1160.89 397.09 1164.76C397.338 1164.83 397.568 1164.96 397.766 1165.12C397.964 1165.29 398.127 1165.49 398.244 1165.72C398.361 1165.95 398.429 1166.21 398.445 1166.46C398.462 1166.72 398.425 1166.98 398.338 1167.22C398.199 1167.73 397.866 1168.17 397.412 1168.43C396.958 1168.7 396.417 1168.78 395.904 1168.66C383.111 1165.1 367.104 1171.78 361.737 1176.74C361.531 1176.95 361.279 1177.1 361.002 1177.18C360.725 1177.27 360.431 1177.29 360.145 1177.24V1177.24Z" fill="#F0F0F0"/>
<path d="M347.071 1163.11C346.626 1163.04 346.223 1162.8 345.947 1162.45C345.629 1162.03 345.485 1161.5 345.543 1160.97C345.601 1160.44 345.857 1159.96 346.259 1159.61C352.999 1153.53 370.379 1146.79 384.015 1150.59C384.26 1150.67 384.488 1150.8 384.684 1150.96C384.88 1151.13 385.041 1151.33 385.157 1151.56C385.273 1151.79 385.342 1152.04 385.361 1152.3C385.379 1152.56 385.346 1152.81 385.263 1153.06C385.198 1153.31 385.083 1153.55 384.925 1153.76C384.767 1153.97 384.57 1154.15 384.344 1154.28C384.118 1154.41 383.868 1154.5 383.608 1154.54C383.348 1154.57 383.083 1154.56 382.829 1154.49C370.036 1150.97 354.029 1157.77 348.662 1162.61C348.45 1162.8 348.197 1162.95 347.922 1163.03C347.647 1163.12 347.356 1163.14 347.071 1163.11V1163.11Z" fill="#F0F0F0"/>
<path d="M334.28 1149.06C333.862 1148.99 333.484 1148.77 333.22 1148.44C332.894 1148.02 332.739 1147.5 332.785 1146.97C332.832 1146.44 333.076 1145.95 333.469 1145.6C342.83 1136.93 360.803 1133.12 374.47 1136.89C374.718 1136.97 374.948 1137.09 375.146 1137.26C375.345 1137.42 375.507 1137.63 375.624 1137.86C375.741 1138.09 375.809 1138.34 375.826 1138.6C375.842 1138.86 375.805 1139.12 375.718 1139.36C375.572 1139.86 375.238 1140.29 374.786 1140.56C374.334 1140.83 373.796 1140.91 373.284 1140.79C360.959 1137.36 344.203 1140.79 335.841 1148.53C335.633 1148.73 335.387 1148.88 335.118 1148.97C334.849 1149.06 334.563 1149.09 334.28 1149.06Z" fill="#F0F0F0"/>
<path d="M171.773 946.962L76.7284 934.761C72.2976 994.297 74.5129 1049.21 68.6156 1104.97C64.7464 1121.57 60.2844 1196.77 61.3453 1218.8C62.9366 1251.91 101.909 1252.69 106.527 1233.62C111.145 1214.56 128.369 1122.29 129.773 1113.77C139.01 1076.05 170.961 949.957 171.773 946.962Z" fill="#FFA8A7"/>
<path d="M115.732 1251.6C113.423 1270.63 109.492 1283.08 101.753 1293.81C94.0151 1304.55 80.3482 1307.14 66.9621 1302.93C53.576 1298.71 36.7264 1288.73 33.8557 1271.97C30.985 1255.22 32.4516 1243.89 36.6016 1226.45L115.732 1251.6Z" fill="#263238"/>
<path d="M68.6145 1104.97C62.9979 1104.97 61.313 1135.02 56.5389 1160.52C51.3904 1187.82 42.092 1198.65 37.6299 1221.02C32.5438 1246.57 33.2615 1258.21 41.7799 1274.44C50.2983 1290.66 82.8743 1308.32 100.754 1287.11C115.357 1269.79 117.135 1249.66 117.478 1223.8C117.822 1197.05 120.88 1178.74 123.251 1158.61C125.498 1139.36 134.484 1116.27 129.772 1113.77C129.211 1116.58 128.649 1120.17 128.087 1122.95C127.651 1125.04 126.434 1135.43 123.313 1135.43C123.189 1132.99 123.314 1130.54 123.688 1128.13C124.124 1125.98 123.711 1123.74 122.533 1121.89C120.908 1120.22 118.783 1119.12 116.48 1118.77C111.051 1117.33 94.6378 1115.65 88.99 1114.65C86.213 1114.21 83.4047 1113.9 80.6277 1113.74C78.2359 1113.54 75.8268 1113.69 73.4821 1114.21C72.8191 1114.37 72.1979 1114.67 71.6598 1115.09C71.1218 1115.51 70.6793 1116.04 70.3618 1116.64C70.0028 1117.57 69.8433 1118.56 69.8938 1119.55C69.7712 1121.34 69.4252 1123.11 68.8641 1124.82C68.6145 1125.54 67.9904 1126.44 67.2104 1126.19C66.4303 1125.94 66.3678 1125.22 66.3991 1124.57C66.5551 1121.45 67.1167 1119.23 67.4912 1115.61C67.6472 1113.96 68.084 1111.68 68.2088 1110C68.3336 1108.31 68.3961 1106.6 68.6145 1104.97Z" fill="#37474F"/>
<path d="M35.1663 1235.84C33.2317 1251.82 33.5125 1262.86 40.19 1275.56C48.7084 1291.82 83.8742 1309.67 101.878 1288.45C110.771 1277.9 113.798 1264.92 115.732 1251.57C106.871 1233.66 51.6727 1222.39 35.1663 1235.84Z" fill="#FAFAFA"/>
<path d="M103.098 1222.39C102.856 1222.37 102.623 1222.29 102.411 1222.17C87.5395 1214.91 70.8807 1212.11 54.4522 1214.12C53.92 1214.2 53.3763 1214.08 52.9345 1213.77C52.4927 1213.46 52.1869 1213 52.0808 1212.47C52.0319 1212.21 52.0375 1211.94 52.0971 1211.68C52.1567 1211.42 52.269 1211.18 52.4271 1210.96C52.5853 1210.75 52.7857 1210.57 53.016 1210.44C53.2463 1210.3 53.5016 1210.22 53.7658 1210.19C71.1273 1207.98 88.7556 1210.94 104.439 1218.71C104.672 1218.83 104.877 1219 105.043 1219.21C105.21 1219.41 105.334 1219.64 105.41 1219.9C105.485 1220.15 105.51 1220.41 105.483 1220.68C105.455 1220.94 105.377 1221.19 105.251 1221.42C105.034 1221.79 104.712 1222.07 104.327 1222.25C103.941 1222.42 103.512 1222.47 103.098 1222.39V1222.39Z" fill="#F0F0F0"/>
<path d="M56.9764 1195.09C56.5923 1195.03 56.2324 1194.87 55.9392 1194.61C55.6461 1194.36 55.4321 1194.03 55.3227 1193.65C55.2526 1193.4 55.2344 1193.13 55.269 1192.87C55.3037 1192.61 55.3906 1192.36 55.5245 1192.13C55.6584 1191.9 55.8366 1191.71 56.0485 1191.55C56.2604 1191.39 56.5017 1191.28 56.758 1191.22C82.3133 1184.82 106.371 1198.71 107.369 1199.3C107.603 1199.42 107.809 1199.59 107.974 1199.8C108.138 1200.01 108.258 1200.24 108.326 1200.5C108.393 1200.76 108.407 1201.02 108.366 1201.28C108.325 1201.54 108.23 1201.79 108.087 1202.02C107.787 1202.47 107.325 1202.79 106.798 1202.91C106.27 1203.03 105.715 1202.94 105.248 1202.67C104.998 1202.67 81.658 1189.1 57.8813 1195.06C57.5874 1195.15 57.2757 1195.16 56.9764 1195.09Z" fill="#F0F0F0"/>
<path d="M59.5338 1177.05C59.1517 1176.99 58.7928 1176.83 58.4958 1176.58C58.1989 1176.34 57.9752 1176.01 57.8489 1175.65C57.778 1175.39 57.7581 1175.13 57.7904 1174.87C57.8227 1174.61 57.9066 1174.35 58.0372 1174.12C58.1677 1173.89 58.3424 1173.69 58.5511 1173.53C58.7598 1173.37 58.9983 1173.25 59.253 1173.18C67.9655 1171.01 77.0253 1170.6 85.8993 1171.97C94.7733 1173.35 103.282 1176.49 110.925 1181.2C111.145 1181.34 111.334 1181.53 111.48 1181.74C111.627 1181.96 111.728 1182.21 111.777 1182.46C111.827 1182.72 111.824 1182.98 111.769 1183.24C111.713 1183.49 111.607 1183.74 111.456 1183.95C111.126 1184.39 110.64 1184.68 110.099 1184.77C109.558 1184.85 109.004 1184.73 108.554 1184.42C94.0929 1175.71 76.783 1173.05 60.3763 1177.02C60.1 1177.08 59.8141 1177.1 59.5338 1177.05V1177.05Z" fill="#F0F0F0"/>
<path d="M62.47 1156.86C62.0935 1156.8 61.7412 1156.64 61.4501 1156.39C61.1591 1156.14 60.9401 1155.82 60.8163 1155.46C60.7358 1155.21 60.7079 1154.94 60.7342 1154.68C60.7605 1154.42 60.8404 1154.16 60.9691 1153.93C61.0977 1153.7 61.2724 1153.5 61.4823 1153.34C61.6921 1153.18 61.9327 1153.06 62.1892 1153C88.587 1145.54 113.144 1160.92 114.173 1161.58C114.398 1161.71 114.593 1161.89 114.745 1162.11C114.898 1162.32 115.005 1162.56 115.061 1162.82C115.116 1163.08 115.119 1163.34 115.068 1163.6C115.017 1163.86 114.915 1164.11 114.766 1164.32C114.613 1164.55 114.417 1164.74 114.19 1164.89C113.962 1165.03 113.708 1165.13 113.441 1165.18C113.174 1165.23 112.901 1165.23 112.635 1165.17C112.37 1165.12 112.119 1165.01 111.896 1164.85C111.646 1164.85 87.9317 1149.87 63.4061 1156.8C63.1014 1156.88 62.7831 1156.91 62.47 1156.86V1156.86Z" fill="#EBEBEB"/>
<path d="M166.469 405.558C148.933 436.761 112.3 489.026 107.682 580.826C100.412 725.42 96.137 800.464 96.137 800.464C87.6498 827.86 81.3468 830.2 76.3543 902.716C72.3603 960.597 71.7051 1032.58 71.7051 1032.58C71.7051 1032.58 114.016 1055.08 148.777 1042.91C164.659 996.606 190.37 894.166 208.249 831.979C224.506 775.532 242.573 684.576 242.573 684.576L268.471 823.772C263.466 853.957 262.584 884.681 265.85 915.103C270.125 953.826 285.102 1030.71 285.102 1030.71C285.102 1030.71 332.25 1047.97 362.611 1027.59C362.611 1027.59 377.9 860.81 379.242 814.006C381.27 743.768 383.08 626.226 377.588 529.746C375.498 492.864 362.642 430.365 358.055 405.465L166.469 405.558Z" fill="#452B4F"/>
<path d="M70.6758 1018.88C84.1555 1028.25 133.862 1038.42 153.114 1032.27L145.594 1053.4C145.594 1053.4 133.113 1057.79 107.059 1055.05C81.004 1052.3 70.6758 1040.1 70.6758 1040.1V1018.88Z" fill="#455A64"/>
<path d="M282.949 1022.35C298.395 1028.59 345.979 1027.62 363.671 1017.32L361.987 1041.51C361.987 1041.51 353.686 1048.93 325.604 1050.52C299.019 1052.05 286.662 1044.44 286.662 1044.44L282.949 1022.35Z" fill="#455A64"/>
<path d="M242.419 684.575L261.983 571.028C261.983 571.028 323.266 566.784 346.45 546.564C346.45 546.564 316.589 584.632 274.933 589.032L254.588 684.575L268.193 822.555L242.419 684.575Z" fill="#263238"/>
<path d="M137.858 124.045C137.858 124.045 141.946 154.874 131.462 180.211C124.66 196.779 113.27 227.015 100.259 260.09C88.0896 291.293 73.2682 377.226 174.428 406.994C232.903 424.218 315.216 407.681 342.925 385.807C417.001 327.302 401.929 260.278 319.429 174.625C300.301 154.718 293.218 110.94 293.218 110.94L137.858 124.045Z" fill="#452B4F"/>
<path d="M289.037 213.691C321.488 215.002 329.976 215.22 383.177 234.067L442.244 255.098L516.507 291.293C517.818 301.341 520.563 319.969 512.139 334.166C505.305 345.68 493.573 344.026 471.824 339.034C440.434 331.826 352.005 309.422 352.005 309.422L289.037 213.691Z" fill="#F7C0AB"/>
<path d="M425.458 249.013C428.11 288.454 433.165 295.818 448.33 312.73L445.209 256.346L442.339 254.942L425.458 249.013Z" fill="#F28F8F"/>
<path d="M431.7 264.115C431.978 280.072 436.782 295.622 445.554 308.954C456.151 324.506 471.826 335.889 489.893 341.156C501.314 343.933 516.166 341 517.602 313.822C519.318 280.996 505.464 253.163 492.826 218.122C475.634 170.444 470.984 158.836 468.332 144.701C466.647 135.684 467.708 118.428 463.901 109.879C459.614 99.9159 454.056 90.55 447.364 82.0145C440.062 72.2792 433.51 78.5822 432.417 80.2359C425.49 73.7145 416.816 73.9954 412.947 79.7679C409.477 79.27 405.94 79.8872 402.844 81.5304C399.748 83.1737 397.254 85.7579 395.723 88.9104C390.512 87.5687 382.992 91.0322 383.241 97.8344C383.901 100.566 385.147 103.121 386.892 105.323C386.455 109.629 395.255 126.697 392.384 132.22C389.513 137.743 382.836 137.899 374.38 139.428C365.393 141.082 357 145.669 355.034 151.909C353.505 156.777 356.469 158.774 360.838 158.743C364.707 158.743 374.317 156.715 381.681 156.527C392.509 156.246 396.69 155.778 402.119 158.056C408.437 160.417 414.433 163.562 419.967 167.417C424.055 170.818 428.486 175.374 430.358 190.726C432.23 206.078 431.7 246.642 431.7 264.115Z" fill="#F7C0AB"/>
<path opacity="0.5" d="M403.802 120.238C402.395 120.997 400.781 121.279 399.2 121.043C397.619 120.807 396.158 120.065 395.034 118.928C396.657 122.048 397.811 124.014 398.966 125.761C400.776 128.445 404.333 130.785 407.827 127.415C411.322 124.045 410.511 120.894 408.826 115.308C408.39 116.442 407.716 117.468 406.849 118.319C405.983 119.169 404.944 119.824 403.802 120.238V120.238ZM437.158 107.071C436.006 106.993 434.901 106.587 433.972 105.902C433.043 105.216 432.33 104.279 431.916 103.202C431.916 103.607 431.916 105.417 432.072 106.946C432.072 107.539 432.072 108.101 432.072 108.537C432.072 110.316 428.577 112.937 426.83 113.062C425.083 113.187 422.056 112.75 419.841 107.945C419.858 108.058 419.858 108.174 419.841 108.288C419.931 109.939 419.513 111.578 418.643 112.984C417.772 114.391 416.491 115.496 414.973 116.151C413.971 116.663 412.836 116.857 411.721 116.706C410.605 116.556 409.563 116.068 408.732 115.308C409.711 118.161 411.179 120.822 413.07 123.172C416.19 126.885 420.558 123.359 421.588 121.112C421.652 122.024 421.982 122.897 422.536 123.623C423.091 124.349 423.846 124.897 424.708 125.2C428.016 126.386 430.949 123.608 431.729 117.025C431.729 117.025 431.729 116.806 431.729 116.681C433.632 122.392 439.062 121.861 440.715 118.304C442.343 113.324 443.39 108.172 443.836 102.952C443.805 105.323 441.215 107.258 437.158 107.071Z" fill="#F28F8F"/>
<path d="M433.319 115.839V116.119C433.849 117.992 435.098 119.583 436.783 119.645C437.204 119.669 437.627 119.606 438.024 119.461C438.42 119.316 438.784 119.092 439.092 118.803C439.766 118.093 440.25 117.223 440.496 116.275C441.813 111.879 442.762 107.381 443.335 102.827V103.17V102.983C443.647 100.424 443.803 97.7097 444.365 95.1198C444.646 93.8093 445.051 92.53 445.426 91.2818C445.794 90.0164 445.9 88.6893 445.738 87.3815C446.021 88.6873 446.021 90.0385 445.738 91.3442C445.457 92.6548 445.145 93.9029 444.989 95.2134C444.583 97.8033 444.646 100.424 444.49 103.108V102.765V102.983C444.233 107.669 443.576 112.325 442.524 116.9C442.267 118.225 441.652 119.456 440.745 120.457C440.244 121 439.636 121.436 438.96 121.736C438.284 122.037 437.554 122.196 436.814 122.204C435.291 122.224 433.821 121.64 432.726 120.581C431.724 119.619 430.964 118.432 430.511 117.118V117.399L433.319 115.839Z" fill="#F28F8F"/>
<path d="M450.42 93.9653C449.952 95.4151 449.175 96.7459 448.142 97.8657C447.124 99.0254 445.984 100.072 444.741 100.986L443.961 99.6755C446.653 98.4859 448.909 96.4909 450.42 93.9653V93.9653Z" fill="#F28F8F"/>
<path d="M412.979 79.7681C414.122 81.9551 415.062 84.2425 415.787 86.6015C416.536 88.9105 417.253 91.2508 417.846 93.591L418.845 97.0857L419.656 100.643L421.216 107.882V108.381L422.464 115.964L423.026 119.739C423.095 120.829 423.392 121.892 423.9 122.859C424.15 123.2 424.467 123.487 424.832 123.702C425.197 123.916 425.602 124.054 426.021 124.108C426.422 124.175 426.833 124.139 427.215 124.003C427.598 123.866 427.939 123.634 428.206 123.327C429.563 121.512 430.375 119.347 430.546 117.087V116.556C430.801 113.641 430.863 110.712 430.733 107.788V98.4587C430.733 95.3384 430.733 92.2181 430.889 89.285C430.889 87.7248 431.107 86.1647 431.263 84.6669C431.34 83.1226 431.744 81.6121 432.449 80.2361C431.976 81.6731 431.796 83.1903 431.919 84.6981C431.919 86.2271 431.919 87.8184 431.919 89.2538L432.543 98.3963L433.198 107.539L433.416 112.157C433.5 113.791 433.448 115.43 433.26 117.056V117.243C433.081 120.157 431.989 122.94 430.14 125.2C429.551 125.863 428.806 126.37 427.973 126.674C427.14 126.979 426.244 127.073 425.366 126.947C424.541 126.813 423.747 126.527 423.026 126.105C422.254 125.65 421.602 125.019 421.122 124.264C420.424 122.974 420.019 121.546 419.937 120.082L419.406 116.213L418.657 108.444V108.194L417.565 101.111L417.035 97.5226L416.286 93.9342C415.484 89.1471 414.379 84.4155 412.979 79.7681V79.7681Z" fill="#F28F8F"/>
<path d="M395.815 88.8797C400.879 95.4097 405.123 102.535 408.453 110.098L410.699 115.839C411.356 117.679 412.181 119.455 413.164 121.144C414.225 122.86 415.255 124.264 417.033 124.077C417.991 123.964 418.913 123.647 419.737 123.146C420.561 122.646 421.267 121.973 421.807 121.175C421.453 122.214 420.854 123.154 420.062 123.914C419.269 124.674 418.305 125.233 417.252 125.543C416.02 125.811 414.733 125.587 413.664 124.919C412.719 124.266 411.895 123.453 411.23 122.517C409.978 120.781 408.931 118.907 408.109 116.931L405.769 111.315C404.209 107.57 402.43 103.92 400.777 100.206C399.123 96.4932 397.376 92.8425 395.815 88.8797Z" fill="#F28F8F"/>
<path d="M408.608 114.684L408.888 115.339C409.785 117.509 410.343 119.803 410.542 122.142C410.562 123.383 410.289 124.611 409.747 125.727C409.205 126.844 408.409 127.817 407.422 128.57C406.408 129.41 405.118 129.844 403.802 129.786C402.503 129.678 401.27 129.165 400.276 128.32C398.563 126.639 397.167 124.662 396.158 122.485L389.293 110.441C388.17 108.412 387.015 106.415 385.923 104.2C384.732 102.2 383.879 100.018 383.396 97.741C384.126 99.9621 385.177 102.065 386.516 103.982L390.26 109.817C392.788 113.686 395.097 117.773 397.406 121.705C398.368 123.713 399.642 125.556 401.181 127.165C401.914 127.876 402.876 128.302 403.895 128.364C404.914 128.427 405.921 128.124 406.735 127.509C407.655 126.915 408.418 126.109 408.961 125.159C409.504 124.208 409.811 123.142 409.856 122.048C409.825 119.759 409.5 117.483 408.888 115.277V115.277L408.608 114.684Z" fill="#F28F8F"/>
<path d="M424.676 123.452C429.021 126.277 432.773 129.923 435.721 134.186C438.755 138.266 440.757 143.019 441.556 148.04C440.302 143.227 437.892 138.793 434.536 135.122C431.383 131.408 427.535 128.345 423.209 126.104L424.676 123.452Z" fill="#F28F8F"/>
<path d="M459.062 152.876C454.569 155.997 448.765 155.997 444.709 158.587C440.652 161.176 431.697 167.105 422.336 162.955C415.159 159.835 404.238 156.527 398.435 156.714C399.697 157.029 400.937 157.425 402.148 157.9C408.465 160.261 414.462 163.406 419.996 167.261C424.083 170.662 428.514 175.218 430.386 190.57C430.386 191.443 430.605 192.473 430.698 193.69C430.698 193.69 431.104 181.427 434.287 175.28C437.47 169.133 446.55 165.42 455.224 160.303C463.899 155.186 463.555 149.85 459.062 152.876Z" fill="#F28F8F"/>
<path d="M228.255 216.78C205.364 219.781 182.73 224.496 160.544 230.884C150.965 235.846 131.057 246.143 137.017 307.488C139.045 328.362 156.426 360.252 155.739 396.822C155.302 422.003 140.138 437.386 125.129 486.811C173.868 538.671 350.446 539.451 374.035 495.517C368.169 429.523 355.095 424.842 361.242 362.655C361.242 362.655 374.004 335.009 371.851 317.504C368.731 291.855 362.833 282.993 337.777 255.441C323.323 239.559 306.951 225.535 289.038 213.691C268.729 213.241 248.414 214.273 228.255 216.78V216.78Z" fill="#EF8B70"/>
<path d="M203.513 202.365C195.682 195.687 183.7 191.568 165.259 176.591C139.579 155.779 112.588 86.7263 149.657 71C146.1 15.5835 224.201 -5.57218 259.117 1.23008C360.808 21.0752 318.809 87.444 318.809 87.444L203.513 202.365Z" fill="#452B4F"/>
<path d="M296.03 51.8101C308.792 62.0447 315.719 65.0401 320.618 120.457C324.424 163.673 315.625 180.21 297.122 190.32C290.569 193.909 277.589 196.873 264.92 196.842L266.98 217.061C266.98 217.061 290.319 244.145 290.07 278.874C212.749 246.236 200.143 223.364 200.143 223.364L190.127 155.248C187.974 159.96 175.492 167.511 163.479 155.498C149.344 141.394 149.812 122.422 159.828 114.247C169.845 106.072 183.948 110.94 190.47 123.078C202.764 126.51 210.783 114.715 204.511 69.5334C229.38 52.4653 264.234 39.5161 296.03 51.8101Z" fill="#F7C0AB"/>
<path d="M293.968 28.6262C301.488 47.8784 298.524 81.2033 271.283 94.5269C275.964 81.3905 272.906 57.8634 272.906 57.8634C272.906 57.8634 257.46 106.821 199.735 104.668L190.936 52.9333C216.647 29.9991 258.428 10.2164 293.968 28.6262Z" fill="#452B4F"/>
<path d="M264.92 196.748C227.071 195.375 205.634 181.147 200.143 166.918C200.143 166.918 202.92 184.829 215.963 193.035C231.782 202.958 265.887 206.765 265.887 206.765L264.92 196.748Z" fill="#F28F8F"/>
<path d="M279.462 156.527L253.064 150.287C252.569 151.978 252.424 153.752 252.64 155.501C252.856 157.249 253.427 158.935 254.318 160.455C255.21 161.975 256.403 163.296 257.824 164.338C259.245 165.38 260.864 166.12 262.581 166.512C266.138 167.316 269.867 166.729 273.005 164.873C276.143 163.017 278.453 160.031 279.462 156.527V156.527Z" fill="#B16668"/>
<path d="M268.448 166.575C266.515 166.995 264.515 166.995 262.582 166.575C260.203 166.024 258.029 164.808 256.316 163.067C254.603 161.326 253.421 159.134 252.909 156.746C256.206 156.527 259.488 157.362 262.28 159.128C265.073 160.894 267.233 163.502 268.448 166.575V166.575Z" fill="#F28F8F"/>
<path d="M235.901 110.69C236.067 112.147 236.662 113.521 237.611 114.639C238.56 115.757 239.819 116.567 241.23 116.967C242.64 117.367 244.138 117.339 245.532 116.886C246.927 116.433 248.155 115.576 249.061 114.423C249.968 113.271 250.511 111.875 250.622 110.413C250.733 108.951 250.407 107.489 249.685 106.213C248.964 104.937 247.879 103.904 246.569 103.245C245.259 102.587 243.783 102.333 242.328 102.515C240.393 102.749 238.63 103.741 237.425 105.274C236.22 106.806 235.672 108.754 235.901 110.69V110.69Z" fill="#452B4F"/>
<path d="M289.196 104.637C289.356 106.096 289.947 107.474 290.893 108.596C291.839 109.718 293.097 110.534 294.508 110.938C295.918 111.343 297.418 111.319 298.814 110.869C300.211 110.419 301.443 109.564 302.352 108.412C303.261 107.26 303.807 105.863 303.92 104.4C304.033 102.937 303.709 101.473 302.987 100.195C302.266 98.9167 301.18 97.8822 299.869 97.223C298.558 96.5637 297.08 96.3095 295.624 96.4927C294.667 96.605 293.742 96.9047 292.901 97.3748C292.059 97.845 291.319 98.4762 290.722 99.2326C290.125 99.9889 289.683 100.856 289.422 101.783C289.16 102.71 289.083 103.68 289.196 104.637V104.637Z" fill="#452B4F"/>
<path d="M266.045 97.7722L275.905 146.324L298.122 134.249L266.045 97.7722Z" fill="#F28F8F"/>
<path d="M308.355 89.0977L290.85 85.3533C291.046 84.206 291.473 83.1106 292.105 82.1331C292.737 81.1555 293.561 80.3162 294.526 79.6659C295.491 79.0155 296.578 78.5676 297.722 78.3492C298.865 78.1307 300.041 78.1463 301.178 78.395C303.517 78.9205 305.566 80.3236 306.901 82.3149C308.236 84.3062 308.756 86.734 308.355 89.0977V89.0977Z" fill="#452B4F"/>
<path d="M227.852 96.1187L243.454 87.0074C242.905 85.9705 242.154 85.0544 241.245 84.3131C240.336 83.5717 239.287 83.0204 238.161 82.6916C237.035 82.3628 235.855 82.2633 234.69 82.399C233.525 82.5347 232.399 82.9027 231.378 83.4814C229.251 84.7054 227.69 86.7155 227.031 89.079C226.371 91.4425 226.666 93.9704 227.852 96.1187V96.1187Z" fill="#452B4F"/>
<path d="M240.304 131.035C240.647 137.275 234.063 142.798 225.389 143.266C216.714 143.734 209.569 139.054 209.226 132.751C208.882 126.448 215.466 120.987 224.141 120.488C232.815 119.989 239.961 124.732 240.304 131.035Z" fill="#F28F8F"/>
<path d="M333.067 114.247C335.283 120.145 330.602 127.384 322.583 130.442C314.564 133.5 306.202 131.222 303.861 125.325C301.521 119.427 306.295 112.188 314.346 109.13C322.396 106.072 330.821 108.444 333.067 114.247Z" fill="#F28F8F"/>
<path d="M81.6947 580.826C77.5759 574.585 71.897 569 70.9297 561.355C70.612 559.398 70.757 557.394 71.353 555.503C71.949 553.612 72.9795 551.887 74.362 550.465C75.0469 549.986 75.6127 549.356 76.0158 548.624C76.2196 547.969 76.2834 547.278 76.203 546.596C75.9282 543.732 76.5496 540.854 77.9816 538.359C78.6661 537.356 79.5527 536.508 80.5845 535.869C81.6162 535.229 82.7703 534.812 83.9725 534.645C83.2909 530.382 83.9792 526.012 85.9383 522.164C88.3098 517.64 93.8015 514.582 96.2353 520.386C97.3645 523.269 98.2008 526.259 98.7315 529.31C100.114 536.892 100.595 544.611 100.167 552.306C99.7925 560.325 98.3571 582.979 85.9695 582.199C85.0022 582.043 82.2252 581.7 81.6947 580.826Z" fill="#F28F8F"/>
<path d="M168.095 229.293C128.217 235.534 116.36 242.273 91.2106 275.286C62.3166 313.198 23.2505 358.161 11.6741 375.666C-2.61684 397.321 -6.2676 405.933 14.9817 434.453C26.0587 449.118 41.6602 467.029 57.2617 486.936C69.7429 502.538 84.814 519.606 96.6399 535.738C98.2777 537.532 99.3751 539.752 99.8057 542.142C100.236 544.533 99.9826 546.996 99.0738 549.249C97.5941 552.195 96.2917 555.227 95.1734 558.329C94.562 562.523 94.2804 566.759 94.3309 570.997C93.8941 575.21 91.8659 579.828 87.7783 581.013C85.7826 581.527 83.6894 581.527 81.6937 581.013C84.7878 584.196 88.356 586.88 92.2715 588.97C96.2341 591.082 100.849 591.617 105.19 590.468C109.277 589.188 112.709 585.975 116.984 585.351C119.262 585.038 121.634 585.507 123.943 585.351C126.281 585.057 128.466 584.031 130.183 582.417C132.96 579.828 134.552 575.771 138.109 574.461C139.87 574.063 141.651 573.761 143.444 573.556C145.221 573.016 146.839 572.052 148.16 570.747C149.481 569.443 150.465 567.836 151.027 566.067C152.114 562.534 152.568 558.837 152.369 555.146C152.364 545.201 151.812 535.263 150.715 525.378C150.179 522.013 149.048 518.769 147.376 515.799C145.66 512.304 144.037 508.716 142.103 505.315C128.966 482.287 87.9031 405.84 87.9031 405.84L159.92 333.012C159.92 333.012 197.675 268.827 168.095 229.293Z" fill="#F7C0AB"/>
<path d="M88.0272 405.559C71.6144 417.447 49.2106 415.263 41.2227 413.547C59.1644 429.148 91.8651 412.455 91.8651 412.455L88.0272 405.559Z" fill="#F28F8F"/>
</svg>
